<?xml version="1.0" encoding="utf-8"?>
<!-- Svg Vector Icons : http://www.onlinewebfonts.com/icon -->
<!DOCTYPE svg PUBLIC "-//W3C//DTD SVG 1.1//EN" "http://www.w3.org/Graphics/SVG/1.1/DTD/svg11.dtd">
<svg version="1.1" xmlns="http://www.w3.org/2000/svg" xmlns:xlink="http://www.w3.org/1999/xlink" x="0px" y="0px" viewBox="0 0 1000 1000" enable-background="new 0 0 1000 1000" xml:space="preserve">
<metadata> Svg Vector Icons : http://www.onlinewebfonts.com/icon </metadata>
<g><path d="M138.9,371C67.7,371,10,428.8,10,500c0,71.2,57.7,129,128.9,129c71.2,0,128.9-57.7,128.9-129C267.9,428.8,210.2,371,138.9,371z M500,371c-71.2,0-129,57.7-129,128.9c0,71.2,57.7,129,129,129c71.2,0,128.9-57.7,128.9-129C628.9,428.8,571.2,371,500,371z M861.1,371c-71.2,0-128.9,57.7-128.9,128.9c0,71.2,57.7,129,128.9,129c71.2,0,128.9-57.7,128.9-129C990,428.8,932.3,371,861.1,371z"/></g>
</svg>